<?xml version="1.0" encoding="iso-8859-1"?>
<!-- Generator: Adobe Illustrator 23.0.6, SVG Export Plug-In . SVG Version: 6.00 Build 0)  -->
<svg version="1.1" id="Layer_1" xmlns="http://www.w3.org/2000/svg" xmlns:xlink="http://www.w3.org/1999/xlink" x="0px" y="0px"
	 viewBox="0 0 192.568 188.621" style="enable-background:new 0 0 192.568 188.621;" xml:space="preserve">
<g id="ky19Qp_1_">
	<g fill='black'>
		<path style="fill:#FFFFFF;" d="M95.924,182.774c0-0.014,0-0.028,0-0.042c4.553,0,9.106,0.002,13.658,0
			c23.685-0.012,47.37-0.029,71.056-0.036c4.495-0.001,9.084-4.757,8.717-11.452c-0.226-4.132-0.272-8.328-0.001-12.449
			c0.293-4.459-0.87-7.527-3.309-10.658c-14.846-19.064-29.523-38.358-44.232-57.608c-1.038-1.359-1.958-1.878-3.233-0.582
			c-7.162,7.277-14.344,14.522-21.516,21.783c-6.362,6.44-12.731,12.867-19.069,19.349c-1.244,1.272-2.328,1.311-3.465-0.109
			c-0.314-0.392-0.661-0.74-1.006-1.087c-13.177-13.259-26.359-26.511-39.528-39.784c-1.101-1.109-1.952-1.05-2.964,0.289
			c-6.769,8.968-13.581,17.879-20.381,26.807c-8.572,11.255-17.131,22.529-25.738,33.737c-1.178,1.534-1.661,3.139-1.611,5.323
			c0.112,4.937,0.323,9.915-0.022,14.812c-0.419,5.944,3.7,11.848,8.905,11.808C40.098,182.661,68.012,182.774,95.924,182.774z
			 M96.036,5.749c0,0.118,0,0.236,0,0.354c-19.514,0-39.028-0.004-58.541,0.002c-8.348,0.002-16.697-0.038-25.044,0.087
			c-1.636,0.024-3.422,0.285-4.867,1.193C4.172,9.528,2.816,13.491,3.247,18.37c0.113,1.279,0.615,2.87,1.347,3.625
			c6.91,7.125,13.902,14.112,20.884,21.115c8.585,8.611,17.192,17.184,25.775,25.799c14.613,14.668,29.221,29.348,43.81,44.057
			c0.899,0.907,1.567,0.888,2.444,0.002c8.552-8.65,17.137-17.245,25.69-25.894c10.237-10.352,20.444-20.756,30.68-31.111
			c11.132-11.262,22.29-22.48,33.409-33.765c0.74-0.751,1.659-1.818,1.788-2.887c0.508-4.21-0.033-8.094-2.731-11.052
			c-1.989-2.181-4.294-2.513-6.717-2.513C151.762,5.751,123.899,5.749,96.036,5.749z M3.213,83.846c0.018,0,0.037,0,0.055,0
			c0,0.787,0,1.574,0,2.361c-0.003,13.023-0.014,26.046,0.013,39.069c0.002,0.785,0.312,1.568,0.479,2.353
			c0.448-0.293,0.994-0.457,1.331-0.899c8.102-10.637,16.179-21.308,24.266-31.964c3.678-4.846,7.376-9.667,11.054-14.512
			c1.407-1.854,1.364-2.358-0.252-3.981c-1.465-1.471-2.931-2.939-4.395-4.411C25.644,61.689,15.527,51.51,5.395,41.358
			c-0.471-0.472-1.084-0.697-1.632-1.036c-0.183,0.77-0.525,1.539-0.527,2.309C3.204,56.369,3.213,70.108,3.213,83.846z
			 M189.284,83.697c-0.017,0-0.034,0-0.051,0c0-6.157-0.001-12.314,0-18.472c0.001-7.66,0.016-15.321-0.018-22.981
			c-0.003-0.719-0.223-1.515-0.53-2.105c-0.092-0.177-0.915,0.061-1.243,0.388c-2.421,2.407-4.792,4.902-7.197,7.337
			c-9.196,9.315-18.395,18.627-27.603,27.922c-1.936,1.954-1.957,2.394-0.144,4.763c11.595,15.152,23.181,30.318,34.788,45.454
			c0.379,0.495,0.964,0.714,1.453,1.062c0.181-0.781,0.518-1.562,0.52-2.344C189.293,111.046,189.284,97.372,189.284,83.697z"/>
		<path d="M95.924,182.774c-27.913,0-55.826-0.113-83.738,0.101c-5.205,0.04-9.325-5.864-8.905-11.808
			c0.346-4.898,0.134-9.876,0.022-14.812c-0.05-2.184,0.433-3.789,1.611-5.323c8.607-11.208,17.165-22.482,25.738-33.737
			c6.8-8.927,13.612-17.839,20.381-26.807c1.011-1.34,1.863-1.399,2.964-0.289c13.169,13.273,26.351,26.524,39.528,39.784
			c0.344,0.347,0.692,0.695,1.006,1.087c1.137,1.42,2.221,1.381,3.465,0.109c6.338-6.482,12.707-12.909,19.069-19.349
			c7.172-7.261,14.354-14.505,21.516-21.783c1.275-1.296,2.195-0.777,3.233,0.582c14.709,19.25,29.386,38.544,44.232,57.608
			c2.439,3.132,3.602,6.199,3.309,10.658c-0.271,4.121-0.225,8.317,0.001,12.449c0.367,6.695-4.222,11.451-8.717,11.452
			c-23.685,0.007-47.37,0.024-71.056,0.036c-4.553,0.002-9.106,0-13.658,0C95.924,182.747,95.924,182.76,95.924,182.774z"/>
		<path d="M96.036,5.749c27.863,0,55.726,0.002,83.589-0.004c2.423,0,4.729,0.332,6.717,2.513c2.698,2.959,3.239,6.843,2.731,11.052
			c-0.129,1.069-1.048,2.136-1.788,2.887c-11.119,11.285-22.277,22.503-33.409,33.765c-10.236,10.355-20.443,20.759-30.68,31.111
			c-8.553,8.649-17.137,17.244-25.69,25.894c-0.876,0.886-1.544,0.905-2.444-0.002c-14.59-14.709-29.197-29.389-43.81-44.057
			c-8.583-8.615-17.19-17.188-25.775-25.799c-6.982-7.003-13.974-13.99-20.884-21.115C3.861,21.24,3.36,19.649,3.247,18.37
			C2.816,13.491,4.172,9.528,7.584,7.385c1.445-0.908,3.231-1.169,4.867-1.193c8.347-0.125,16.696-0.084,25.044-0.087
			C57.008,6.1,76.522,6.103,96.036,6.103C96.036,5.985,96.036,5.867,96.036,5.749z"/>
		<path d="M3.213,83.846c0-13.738-0.009-27.477,0.023-41.215c0.002-0.77,0.343-1.54,0.527-2.309c0.547,0.34,1.16,0.564,1.632,1.036
			c10.133,10.151,20.25,20.331,30.37,30.504c1.464,1.472,2.93,2.94,4.395,4.411c1.616,1.623,1.66,2.127,0.252,3.981
			c-3.679,4.845-7.376,9.666-11.054,14.512c-8.088,10.656-16.164,21.327-24.266,31.964c-0.337,0.442-0.883,0.606-1.331,0.899
			c-0.167-0.784-0.477-1.568-0.479-2.353c-0.027-13.023-0.016-26.046-0.013-39.069c0-0.787,0-1.574,0-2.361
			C3.25,83.846,3.231,83.846,3.213,83.846z"/>
		<path d="M189.284,83.697c0,13.675,0.009,27.349-0.023,41.024c-0.002,0.782-0.339,1.562-0.52,2.344
			c-0.489-0.348-1.074-0.567-1.453-1.062c-11.608-15.136-23.193-30.301-34.788-45.454c-1.813-2.369-1.792-2.808,0.144-4.763
			c9.208-9.295,18.407-18.606,27.603-27.922c2.405-2.436,4.776-4.93,7.197-7.337c0.329-0.327,1.151-0.565,1.243-0.388
			c0.307,0.59,0.527,1.386,0.53,2.105c0.034,7.66,0.018,15.321,0.018,22.981c-0.001,6.157,0,12.314,0,18.472
			C189.251,83.697,189.268,83.697,189.284,83.697z"/>
	</g>
</g>
</svg>
