<?xml version="1.0" encoding="iso-8859-1"?>
<!-- Generator: Adobe Illustrator 23.0.6, SVG Export Plug-In . SVG Version: 6.00 Build 0)  -->
<svg version="1.1" id="Layer_1" xmlns="http://www.w3.org/2000/svg" xmlns:xlink="http://www.w3.org/1999/xlink" x="0px" y="0px"
	 viewBox="0 0 192.568 188.621" style="enable-background:new 0 0 192.568 188.621;" xml:space="preserve">
<g fill='black'>
	<path d="M4.689,94.421c0-13.602,0.008-27.205-0.002-40.807C4.67,30.057,20.585,9.674,43.457,3.994
		C47.3,3.04,51.202,2.559,55.17,2.561c27.511,0.011,55.023,0.008,82.534,0.005c23.655-0.003,44.535,16.774,49.462,39.927
		c0.775,3.642,1.177,7.432,1.19,11.156c0.098,27.281,0.049,54.563,0.054,81.844c0.004,23.687-16.818,44.626-39.989,49.552
		c-3.605,0.766-7.355,1.177-11.04,1.19c-27.319,0.097-54.639,0.05-81.959,0.054c-23.152,0.003-43.741-16.149-49.269-38.663
		c-0.981-3.995-1.482-8.043-1.474-12.167C4.705,121.78,4.688,108.101,4.689,94.421z M96.562,145.433
		c28.173-0.009,50.971-22.77,50.994-50.912c0.023-28.255-22.748-51.15-50.881-51.157C68.319,43.357,45.47,66.165,45.482,94.465
		C45.494,122.635,68.351,145.442,96.562,145.433z M157.846,22.971c-5.692-0.035-10.228,4.467-10.238,10.16
		c-0.009,5.632,4.468,10.163,10.087,10.207c5.683,0.045,10.27-4.46,10.297-10.114C168.021,27.528,163.546,23.006,157.846,22.971z"/>
	<path d="M127.135,94.478c0.011,16.813-13.68,30.532-30.471,30.535c-17.013,0.003-30.744-13.619-30.747-30.503
		c-0.003-17.097,13.644-30.718,30.774-30.715C113.512,63.799,127.124,77.518,127.135,94.478z"/>
</g>
</svg>
